<svg width="67" height="66" viewBox="0 0 67 66" fill="none" xmlns="http://www.w3.org/2000/svg">
<rect x="4" y="9" width="59" height="29" fill="#CCCCCC"/>
<rect x="4" y="4" width="59" height="29" fill="#CCCCCC"/>
<rect x="29" y="42" width="4" height="24" fill="black"/>
<rect x="37" y="38" width="5" height="24" fill="black"/>
<rect x="33" y="61" width="9" height="5" fill="black"/>
<rect x="42" y="38" width="25" height="4" fill="black"/>
<rect x="63" y="11" width="4" height="27" fill="black"/>
<rect y="8" width="4" height="34" fill="black"/>
<rect x="62" y="10" width="5" height="1" fill="black"/>
<path d="M61 8H66V9H61V8Z" fill="black"/>
<rect x="62" y="9" width="4" height="1" fill="black"/>
<rect x="61" y="7" width="5" height="1" fill="black"/>
<rect x="58" y="5" width="6" height="1" fill="black"/>
<rect x="3" y="4" width="61" height="1" fill="black"/>
<rect x="56" y="3" width="7" height="1" fill="black"/>
<rect x="55" y="2" width="6" height="1" fill="black"/>
<rect x="53" y="1" width="6" height="1" fill="black"/>
<rect x="11" width="45" height="5" fill="black"/>
<rect x="60" y="6" width="5" height="1" fill="black"/>
<rect x="4" y="3" width="7" height="1" fill="black"/>
<rect x="5" y="2" width="7" height="1" fill="black"/>
<rect x="7" y="1" width="7" height="1" fill="black"/>
<rect x="4" y="38" width="29" height="4" fill="black"/>
<rect x="1" y="7" width="5" height="1" fill="black"/>
<rect y="8" width="5" height="1" fill="black"/>
<rect x="1" y="6" width="6" height="1" fill="black"/>
<rect x="2" y="5" width="6" height="1" fill="black"/>
<rect x="4" y="12" width="17" height="24" fill="#383838"/>
<rect x="8" y="5" width="8" height="7" fill="#383838"/>
<rect x="8" y="5" width="8" height="7" fill="#383838"/>
<rect x="7" y="6" width="8" height="7" fill="#383838"/>
<rect x="6" y="7" width="8" height="7" fill="#383838"/>
<rect x="5" y="8" width="8" height="7" fill="#383838"/>
<rect x="12" y="9" width="8" height="7" fill="#383838"/>
<rect x="11" y="8" width="8" height="7" fill="#383838"/>
<rect x="10" y="7" width="8" height="7" fill="#383838"/>
<rect x="9" y="6" width="8" height="7" fill="#383838"/>
<rect x="4" y="9" width="8" height="7" fill="#383838"/>
<rect x="33" y="38" width="4" height="23" fill="#8E562E"/>
<rect x="35" y="19" width="19" height="5" fill="#F03A17"/>
<rect x="46" y="24" width="8" height="4" fill="#F03A17"/>
<rect x="34" y="19" width="8" height="4" fill="#F03A17"/>
<rect x="33" y="20" width="8" height="2" fill="#F03A17"/>
<rect x="35" y="22" width="8" height="2" fill="#F03A17"/>
</svg>
